<svg width="82" height="80" viewBox="0 0 82 80" fill="none" xmlns="http://www.w3.org/2000/svg">
<g id="about02" clip-path="url(#clip0_1403_25730)">
<g id="karaoke">
<path id="Path" fill-rule="evenodd" clip-rule="evenodd" d="M14.3928 15.0036C14.6118 15.2297 14.9127 15.3559 15.2258 15.3524C15.3844 15.3559 15.5424 15.3277 15.69 15.2684C15.9758 15.1398 16.2046 14.9084 16.3324 14.6189C16.3905 14.4697 16.419 14.3106 16.4155 14.1496C16.4184 13.8337 16.2941 13.5294 16.0704 13.308C15.9618 13.1959 15.8323 13.106 15.69 13.0432C15.4698 12.9604 15.2322 12.9351 14.9998 12.9709C14.9284 12.995 14.8453 13.0191 14.7739 13.0432C14.7024 13.0672 14.631 13.1154 14.5711 13.1518C14.4451 13.247 14.333 13.3609 14.2383 13.4883C14.2029 13.5482 14.1668 13.6205 14.1314 13.6927C14.0954 13.765 14.0838 13.8489 14.06 13.9212C14.0501 13.9969 14.046 14.0733 14.0478 14.1496C14.0443 14.3106 14.0727 14.4697 14.1314 14.6189C14.193 14.7634 14.2819 14.8937 14.3928 15.0036Z" fill="#CAFD35"/>
<path id="Path_2" fill-rule="evenodd" clip-rule="evenodd" d="M11.4498 15.2873C11.1017 15.6259 10.9977 16.1496 11.189 16.5993C11.2463 16.7457 11.3353 16.8774 11.4498 16.9843C11.6695 17.2165 11.973 17.347 12.2904 17.3459C12.4448 17.3429 12.5974 17.31 12.7402 17.2495C12.8841 17.1913 13.0136 17.1007 13.1189 16.9843C13.2293 16.8744 13.3177 16.7433 13.3796 16.5993C13.5525 16.1479 13.4507 15.6353 13.1189 15.2873C12.6511 14.8352 11.9175 14.8352 11.4498 15.2873Z" fill="#CAFD35"/>
<path id="Path_3" fill-rule="evenodd" clip-rule="evenodd" d="M11.1498 18.2945C10.9313 18.0667 10.63 17.9379 10.3155 17.9379C10.0004 17.9379 9.69915 18.0667 9.48059 18.2945C9.36322 18.4029 9.27417 18.5381 9.21982 18.6885C9.15911 18.8319 9.12731 18.9863 9.125 19.1419C9.12847 19.4607 9.25625 19.7649 9.48059 19.9893C9.70377 20.2061 9.99981 20.3297 10.3091 20.3355C10.6231 20.3332 10.9243 20.2096 11.1498 19.9893C11.3707 19.7638 11.4944 19.459 11.4933 19.1419C11.4956 18.9869 11.4678 18.833 11.4106 18.6885C11.3522 18.5405 11.2632 18.4064 11.1498 18.2945Z" fill="#CAFD35"/>
<path id="Path_4" fill-rule="evenodd" clip-rule="evenodd" d="M15.2315 20.3355C15.3899 20.3337 15.5466 20.3017 15.6935 20.2405C15.8346 20.1822 15.9635 20.0971 16.0722 19.9893C16.2931 19.7638 16.4162 19.459 16.4157 19.1419C16.418 18.9869 16.3896 18.833 16.333 18.6885C16.274 18.5405 16.1855 18.4064 16.0722 18.2945C15.8531 18.0667 15.5518 17.9379 15.2373 17.9379C14.9228 17.9379 14.6215 18.0667 14.4024 18.2945C14.289 18.4064 14.2006 18.5405 14.1422 18.6885C14.0815 18.8319 14.0491 18.9863 14.0474 19.1419C14.052 19.7993 14.5793 20.3314 15.2315 20.3355Z" fill="#CAFD35"/>
<path id="Path_5" fill-rule="evenodd" clip-rule="evenodd" d="M13.1191 21.2613C12.649 20.8162 11.9199 20.8162 11.4498 21.2613C11.3325 21.3706 11.2434 21.5068 11.1891 21.6583C11.1284 21.8028 11.096 21.9584 11.0943 22.1152C11.0914 22.6037 11.3799 23.0453 11.8245 23.2332C12.2686 23.4206 12.7803 23.316 13.1191 22.969C13.34 22.7417 13.4637 22.4346 13.4625 22.1152C13.4648 21.959 13.4365 21.8033 13.3798 21.6583C13.3214 21.5091 13.2324 21.3735 13.1191 21.2613Z" fill="#CAFD35"/>
<path id="Path_6" fill-rule="evenodd" clip-rule="evenodd" d="M18.1848 12.363C18.3386 12.3653 18.4918 12.3365 18.6346 12.2783C18.7768 12.216 18.9052 12.1261 19.0139 12.0138C19.1278 11.9069 19.2168 11.7752 19.2741 11.6283C19.3336 11.4837 19.366 11.3286 19.3689 11.171C19.3701 10.849 19.2417 10.5404 19.0139 10.3165C18.9087 10.2007 18.7792 10.1102 18.6346 10.0514C18.1911 9.87336 17.6852 9.9768 17.3441 10.3165C17.1192 10.5416 16.9954 10.8507 17.0006 11.171C17.0006 11.489 17.1261 11.794 17.3481 12.018C17.5707 12.2419 17.872 12.3659 18.1848 12.363Z" fill="#CAFD35"/>
<path id="Path_7" fill-rule="evenodd" clip-rule="evenodd" d="M20.6881 9.28922C20.8309 9.34686 20.9841 9.37568 21.1379 9.37333C21.4525 9.37392 21.7548 9.24864 21.9786 9.02397C22.1966 8.794 22.3197 8.48816 22.322 8.1688C22.3157 7.85355 22.1931 7.55242 21.9786 7.32539C21.6363 6.9878 21.1321 6.88428 20.6881 7.06073C20.5383 7.11543 20.4048 7.20659 20.2972 7.32539C20.1868 7.43597 20.0984 7.56654 20.0365 7.71122C19.9798 7.85649 19.9515 8.01235 19.9538 8.1688C19.948 8.48934 20.0723 8.79871 20.2972 9.02397C20.4077 9.13925 20.5407 9.22923 20.6881 9.28922Z" fill="#CAFD35"/>
<path id="Path_8" fill-rule="evenodd" clip-rule="evenodd" d="M11.1491 7.31841C10.8063 6.98233 10.3006 6.88379 9.85903 7.0662C9.56195 7.17529 9.32729 7.41284 9.21979 7.7149C9.1591 7.85919 9.12731 8.01403 9.125 8.17122C9.12731 8.48971 9.25042 8.7947 9.46832 9.02403C9.58623 9.12961 9.71743 9.21876 9.85903 9.28856C10.0024 9.34604 10.155 9.37478 10.3087 9.37243C10.3885 9.37654 10.4682 9.36833 10.5457 9.34839C10.6179 9.33372 10.6896 9.31378 10.7589 9.28856C10.8324 9.25278 10.9034 9.2129 10.9716 9.16832C11.0341 9.12374 11.093 9.07565 11.1491 9.02403C11.2005 8.96714 11.2479 8.90673 11.2913 8.84397C11.3352 8.77417 11.3751 8.70203 11.4098 8.62754C11.4352 8.55716 11.4548 8.48501 11.4687 8.41111C11.4884 8.3331 11.4965 8.25216 11.4924 8.17122C11.4947 8.0152 11.467 7.85977 11.4098 7.7149C11.341 7.5712 11.2537 7.43806 11.1491 7.31841Z" fill="#CAFD35"/>
<path id="Path_9" fill-rule="evenodd" clip-rule="evenodd" d="M13.1183 4.33397L12.9409 4.19C12.8108 4.10456 12.6663 4.04369 12.5149 4.01033C12.2843 3.96176 12.0444 3.98692 11.8283 4.08232C11.6867 4.14026 11.5584 4.2257 11.4497 4.33397C11.2278 4.56105 11.1006 4.86596 11.0942 5.18492C11.0966 5.26509 11.1041 5.34527 11.1179 5.42487L11.189 5.64024C11.2197 5.71456 11.2555 5.78655 11.2954 5.85619C11.3433 5.91881 11.3948 5.97909 11.4497 6.03586C11.5584 6.14413 11.6867 6.22958 11.8283 6.28752C11.9687 6.35482 12.1225 6.38759 12.2779 6.3835C12.3571 6.38174 12.4363 6.37355 12.5149 6.3595C12.6663 6.32614 12.8108 6.26528 12.9409 6.17983C13.0027 6.13535 13.0623 6.08736 13.1183 6.03586C13.1727 5.98202 13.2206 5.92174 13.2605 5.85619C13.3044 5.78713 13.3437 5.71456 13.379 5.64024C13.4038 5.57001 13.4241 5.49802 13.4379 5.42487C13.4576 5.34644 13.4657 5.26568 13.4616 5.18492C13.464 5.02924 13.4356 4.87415 13.379 4.7296C13.3143 4.58387 13.2264 4.45044 13.1183 4.33397Z" fill="#CAFD35"/>
<path id="Path_10" fill-rule="evenodd" clip-rule="evenodd" d="M8.19654 10.3252C8.13988 10.2702 8.08091 10.2181 8.01847 10.1696C7.95025 10.1286 7.87914 10.0929 7.80571 10.0614L7.59238 9.98998C7.3617 9.94084 7.12177 9.966 6.90554 10.0614C6.75927 10.1222 6.6263 10.2117 6.51529 10.3252C6.30022 10.551 6.17765 10.8506 6.17188 11.1641C6.17361 11.2443 6.1817 11.3244 6.19558 11.4034C6.22853 11.5573 6.28865 11.7029 6.37306 11.8352L6.51529 12.0148C6.62977 12.1242 6.76158 12.2131 6.90554 12.278C7.04892 12.3359 7.20155 12.3646 7.35592 12.3623C7.43512 12.3658 7.51491 12.3582 7.59238 12.3383C7.66522 12.3236 7.73634 12.3038 7.80571 12.278C7.87914 12.2429 7.95025 12.2031 8.01847 12.1581C8.0838 12.1177 8.14335 12.0697 8.19654 12.0148C8.24742 11.9574 8.29482 11.8977 8.33819 11.8352C8.42317 11.7029 8.48329 11.5573 8.51624 11.4034C8.52954 11.3244 8.53765 11.2443 8.53996 11.1641C8.54401 11.0068 8.51163 10.8506 8.44514 10.7084C8.38733 10.5656 8.30292 10.4352 8.19654 10.3252Z" fill="#CAFD35"/>
<path id="Path_11" fill-rule="evenodd" clip-rule="evenodd" d="M13.1183 10.3249C13.0623 10.2699 13.0027 10.2178 12.9409 10.1692C12.8762 10.1283 12.8091 10.0926 12.7397 10.061C12.6687 10.0376 12.586 10.0136 12.5149 9.9896C12.2843 9.94103 12.0444 9.96619 11.8283 10.061C11.5433 10.1897 11.3156 10.4202 11.189 10.7081C11.1283 10.8526 11.096 11.0071 11.0942 11.1639C11.0966 11.2441 11.1041 11.3243 11.1179 11.4032C11.1416 11.4752 11.1653 11.5589 11.189 11.6309C11.2197 11.7017 11.2555 11.7695 11.2954 11.8351C11.3433 11.8977 11.3948 11.9574 11.4497 12.0147C11.5578 12.1265 11.6861 12.216 11.8283 12.278C11.971 12.3359 12.1242 12.3646 12.2779 12.3623C12.3577 12.3658 12.4375 12.3582 12.5149 12.3383C12.5912 12.3236 12.6663 12.3037 12.7397 12.278C12.8091 12.2429 12.8767 12.2025 12.9409 12.1581C13.0698 12.0756 13.179 11.9655 13.2605 11.8351C13.3044 11.7695 13.3437 11.7017 13.379 11.6309C13.4038 11.5565 13.4241 11.4805 13.4379 11.4032C13.4576 11.3248 13.4657 11.2441 13.4616 11.1639C13.464 11.0077 13.4356 10.8532 13.379 10.7081C13.3172 10.5648 13.2287 10.4343 13.1183 10.3249Z" fill="#CAFD35"/>
<path id="Path_12" fill-rule="evenodd" clip-rule="evenodd" d="M14.1314 8.64156C14.1668 8.71295 14.2028 8.77322 14.2382 8.8452C14.2864 8.90781 14.3381 8.96808 14.3927 9.02484C14.4438 9.08278 14.5042 9.13134 14.571 9.1688C14.6343 9.21561 14.7022 9.25599 14.7737 9.28876C14.8474 9.31392 14.9229 9.33381 14.9996 9.34844C15.0733 9.36834 15.1494 9.37653 15.2255 9.37244C15.5419 9.37536 15.8462 9.25013 16.0698 9.02484C16.2957 8.80072 16.42 8.49292 16.4148 8.174C16.4188 8.09735 16.4107 8.02069 16.391 7.94637C16.3782 7.86854 16.3584 7.79247 16.3317 7.71874C16.2667 7.57303 16.1784 7.43903 16.0698 7.32316C15.9606 7.21491 15.8311 7.12947 15.6894 7.07154C15.4723 6.97674 15.2313 6.95158 14.9996 6.99956C14.9212 7.01244 14.8451 7.03643 14.7737 7.07154C14.7005 7.09495 14.632 7.13181 14.571 7.17921C14.5117 7.2272 14.4403 7.27518 14.3927 7.32316C14.1709 7.54963 14.0472 7.85567 14.0478 8.174C14.046 8.25417 14.0501 8.33434 14.06 8.41334C14.0838 8.48531 14.1076 8.56958 14.1314 8.64156Z" fill="#CAFD35"/>
<path id="Path_13" fill-rule="evenodd" clip-rule="evenodd" d="M17.3441 6.03533C17.3949 6.09325 17.4551 6.1418 17.5216 6.17924C17.5863 6.2237 17.6534 6.26348 17.7228 6.29916C17.7962 6.32431 17.8714 6.34479 17.9483 6.35883C18.0252 6.37872 18.105 6.38691 18.1848 6.38281C18.4964 6.38574 18.7959 6.26055 19.0139 6.03533C19.1307 5.92653 19.2203 5.79139 19.2741 5.63988C19.3348 5.49598 19.3672 5.34154 19.3689 5.18477C19.3654 4.86537 19.2377 4.55942 19.0139 4.33421C18.9046 4.22598 18.7763 4.14058 18.6346 4.08266C18.4189 3.98673 18.179 3.96157 17.9483 4.01071C17.7962 4.04405 17.6517 4.10489 17.5216 4.1903C17.4626 4.23827 17.3915 4.28624 17.3441 4.33421C17.1232 4.56059 17 4.86654 17.0006 5.18477C16.9983 5.34037 17.0266 5.49539 17.0833 5.63988C17.1423 5.78906 17.2307 5.9236 17.3441 6.03533Z" fill="#CAFD35"/>
<path id="Path_14" fill-rule="evenodd" clip-rule="evenodd" d="M11.4098 13.6943C11.3774 13.6222 11.3375 13.5541 11.2913 13.4902C11.2543 13.4222 11.2063 13.3612 11.1491 13.3102C11.093 13.2545 11.0341 13.2023 10.9716 13.1542C10.9006 13.1178 10.8416 13.082 10.7705 13.0457C10.6994 13.0099 10.6168 12.9976 10.5457 12.9735C10.1544 12.9049 9.75442 13.0298 9.46832 13.3102C9.42093 13.3583 9.37353 13.4304 9.32672 13.4902C9.27932 13.5512 9.24349 13.6204 9.21979 13.6943C9.18569 13.7665 9.16199 13.8433 9.1487 13.9225C9.1354 13.9981 9.12731 14.0743 9.125 14.1506C9.12558 14.3119 9.15794 14.4708 9.21979 14.6192C9.27701 14.7629 9.36197 14.8931 9.46832 15.0033C9.58334 15.113 9.71512 15.2027 9.85903 15.2678C9.93186 15.2948 10.0076 15.3147 10.0839 15.3276C10.1573 15.3476 10.233 15.3558 10.3087 15.3517C10.6243 15.3575 10.9283 15.2315 11.1491 15.0033C11.3722 14.7775 11.4959 14.4702 11.4924 14.1506C11.4965 14.0738 11.4884 13.9969 11.4687 13.9225C11.4548 13.845 11.4352 13.7688 11.4098 13.6943Z" fill="#CAFD35"/>
<path id="Path_15" fill-rule="evenodd" clip-rule="evenodd" d="M8.45624 15.6809C8.42156 15.6107 8.38168 15.5423 8.33775 15.4774C8.30133 15.4095 8.25336 15.3487 8.19613 15.2978C8.08514 15.1832 7.9522 15.0931 7.80538 15.0341C7.36146 14.8563 6.85568 14.9598 6.51522 15.2978C6.46783 15.3452 6.42043 15.4171 6.37303 15.4774C6.28864 15.6089 6.22852 15.7551 6.19557 15.9084C6.1817 15.9873 6.17361 16.0674 6.17188 16.1481C6.17765 16.461 6.3002 16.7605 6.51522 16.9862C6.73776 17.2131 7.0395 17.3424 7.35568 17.3459C7.51001 17.3435 7.66319 17.3114 7.80538 17.25C7.95451 17.195 8.08862 17.1049 8.19613 16.9862C8.41809 16.7657 8.54237 16.4628 8.53948 16.1481C8.54295 16.0674 8.53543 15.9867 8.51578 15.9084C8.50133 15.8312 8.48168 15.7551 8.45624 15.6809Z" fill="#CAFD35"/>
<path id="Path_16" fill-rule="evenodd" clip-rule="evenodd" d="M18.1852 17.3459C18.3401 17.3435 18.4927 17.3113 18.6349 17.2498C18.9198 17.121 19.1475 16.8903 19.2741 16.6023C19.3348 16.4583 19.3672 16.3031 19.3689 16.1468C19.3701 15.8253 19.2417 15.5179 19.014 15.2955C18.7343 15.0144 18.3349 14.8932 17.9488 14.9717C17.8719 14.9857 17.7968 15.0056 17.7234 15.0314C17.6529 15.0671 17.5934 15.1034 17.5223 15.1391C17.3968 15.2346 17.2853 15.3476 17.1911 15.4752C17.1552 15.5472 17.12 15.6069 17.0842 15.679C17.0593 15.7533 17.0396 15.8294 17.0252 15.9067C17.0055 15.9852 16.9975 16.066 17.0015 16.1468C16.9986 16.4618 17.1223 16.7651 17.3448 16.9858C17.565 17.2171 17.8685 17.347 18.1852 17.3459Z" fill="#CAFD35"/>
<path id="Path_17" fill-rule="evenodd" clip-rule="evenodd" d="M20.2973 15.0032C20.4078 15.1185 20.5407 15.2091 20.6882 15.2685C20.831 15.3267 20.9842 15.3549 21.138 15.3526C21.4525 15.3538 21.7549 15.2285 21.9786 15.0032C22.0856 14.8926 22.17 14.7621 22.2272 14.618C22.2879 14.4692 22.3203 14.3098 22.322 14.148C22.3197 13.8328 22.1966 13.5299 21.9786 13.3052C21.6363 12.967 21.1322 12.8635 20.6882 13.04C20.5407 13.0994 20.4078 13.1899 20.2973 13.3052C20.0747 13.5269 19.951 13.8316 19.9539 14.148C19.9504 14.3092 19.9788 14.4686 20.0366 14.618C20.0984 14.7627 20.1869 14.8932 20.2973 15.0032Z" fill="#CAFD35"/>
<path id="Path_18" fill-rule="evenodd" clip-rule="evenodd" d="M23.6427 12.2783C23.7863 12.3365 23.9393 12.3653 24.0939 12.363C24.5707 12.3606 24.9999 12.0689 25.1835 11.6225C25.3672 11.1756 25.2698 10.661 24.9362 10.3152C24.5933 9.97761 24.0881 9.87411 23.6427 10.0499C23.4932 10.1052 23.3589 10.1964 23.2517 10.3152C22.7918 10.7851 22.7918 11.5437 23.2517 12.0136C23.3623 12.1289 23.4956 12.2189 23.6427 12.2783Z" fill="#CAFD35"/>
<path id="Shape" fill-rule="evenodd" clip-rule="evenodd" d="M80.4281 77.3861L74.365 74.3467C72.1034 73.2239 70.6734 70.8918 70.6831 68.3418V67.2805C70.6799 63.912 68.8984 60.8026 66.0119 59.1288L58.8588 54.9933C59.4087 53.5185 59.0571 51.8545 57.9586 50.7369L56.9939 49.7599C58.2236 48.2275 58.1674 46.0165 56.8621 44.5501L34.518 19.5197L36.4358 17.5776C36.684 17.3264 36.8235 16.9855 36.8235 16.6295C36.8235 16.2742 36.684 15.9333 36.4358 15.682L32.6932 11.8921C32.4451 11.6408 32.1084 11.4995 31.7575 11.4995C31.5016 11.5067 31.2529 11.5911 31.0442 11.7416C29.5644 4.53014 23.0548 -0.468349 15.7983 0.0348374C8.54176 0.537369 2.76495 6.3865 2.26869 13.7354C1.77243 21.0836 6.70856 27.6754 13.8301 29.1738C13.6814 29.3852 13.5981 29.6364 13.5903 29.8962C13.5903 30.2515 13.7299 30.5924 13.978 30.8437L17.7207 34.633C17.9688 34.8849 18.3055 35.0262 18.657 35.0262C19.0085 35.0262 19.3452 34.8849 19.5933 34.633L21.5092 32.6915L46.2338 55.3212C47.6767 56.6554 49.8692 56.7129 51.378 55.4553L52.344 56.4335C53.6015 57.716 55.5549 57.9791 57.0999 57.0741L64.7002 61.4687C66.7589 62.6615 68.0312 64.8778 68.0364 67.2805V68.3418C68.0235 71.9139 70.0285 75.179 73.1974 76.7481L79.2611 79.7875C79.4433 79.8772 79.6436 79.923 79.8459 79.921C80.4656 79.9269 81.0058 79.4977 81.1466 78.8872C81.2881 78.2767 80.9922 77.6485 80.4352 77.375L80.4281 77.3861ZM8.36341 6.2072C11.6841 2.8439 16.6474 1.77144 21.0349 3.46879C25.4224 5.16549 28.4155 9.3153 28.6766 14.0645L28.0149 14.7345C28.4601 14.2824 28.5286 13.5757 28.1784 13.0444C27.8288 12.5137 27.1581 12.3063 26.5752 12.5484C26.4143 12.6217 26.267 12.7211 26.1384 12.8435C25.8954 13.0934 25.7578 13.4304 25.7546 13.7812C25.7565 13.8715 25.7656 13.9611 25.7811 14.0494C25.7959 14.1378 25.8224 14.2235 25.8605 14.304C25.887 14.3864 25.9271 14.4636 25.9801 14.5317C26.026 14.6037 26.0796 14.6711 26.1384 14.7326C26.3891 14.9838 26.7258 15.1278 27.0779 15.135C27.4279 15.1298 27.7612 14.987 28.0088 14.7374L25.2137 17.5685C25.4567 17.3179 25.5937 16.9815 25.5963 16.6301C25.593 16.4509 25.5568 16.2742 25.4903 16.108C25.4263 15.9477 25.3313 15.8024 25.2124 15.6787C24.8299 15.3031 24.2664 15.188 23.7695 15.3843C23.6054 15.4504 23.4568 15.5511 23.3333 15.6787C23.2138 15.8024 23.1195 15.9477 23.0548 16.108C22.9883 16.2742 22.9528 16.4509 22.9495 16.6301C22.9521 16.9815 23.0897 17.3179 23.3333 17.5685C23.4529 17.7006 23.6028 17.8021 23.7695 17.8636C23.9291 17.9323 24.0997 17.9683 24.2729 17.9702C24.6227 17.9657 24.9566 17.8236 25.2049 17.5735L22.4306 20.3828C22.6536 20.1335 22.7809 19.8109 22.788 19.4739C22.786 19.2992 22.7499 19.1258 22.682 18.9648C22.6213 18.7993 22.5263 18.6488 22.4042 18.5225C22.2723 18.4047 22.1256 18.3053 21.9673 18.228C21.6449 18.0939 21.2837 18.0939 20.9619 18.228C20.6317 18.3654 20.3693 18.6305 20.2336 18.9648C20.1102 19.2926 20.1102 19.6552 20.2336 19.9836C20.3105 20.1433 20.4081 20.2925 20.5251 20.4253C20.6491 20.5496 20.7978 20.6452 20.9619 20.7067C21.1208 20.7754 21.2914 20.812 21.4646 20.814C21.7967 20.8068 22.1153 20.6785 22.3615 20.4521L19.5881 23.2612C19.8343 23.0105 19.9752 22.6718 19.9797 22.3177C19.9778 22.1429 19.9416 21.9695 19.8737 21.8086C19.813 21.6398 19.7135 21.488 19.583 21.3662C19.0628 20.8552 18.2363 20.8552 17.7168 21.3662C17.5901 21.4912 17.4913 21.6424 17.4254 21.8086C17.362 21.9702 17.3304 22.1436 17.333 22.3177C17.3317 22.6736 17.47 23.0158 17.7168 23.2691C17.8383 23.3901 17.9824 23.4856 18.14 23.5504C18.3042 23.6185 18.4793 23.6545 18.6563 23.6577C19.0033 23.6558 19.3355 23.5171 19.583 23.2704L16.7874 26.1013C17.0337 25.8505 17.174 25.5124 17.1792 25.1588C17.1727 24.8015 17.0306 24.4613 16.7824 24.2074C16.7217 24.1472 16.6551 24.0935 16.5841 24.0464C16.5162 23.9934 16.44 23.9528 16.3592 23.926C16.2791 23.8868 16.1944 23.8599 16.1072 23.8455C15.6762 23.7637 15.2323 23.8985 14.9163 24.2074C14.7954 24.3369 14.6972 24.4868 14.6255 24.6497C14.5576 24.8107 14.5215 24.9834 14.5195 25.1588C14.5169 25.7019 14.8381 26.1926 15.3331 26.402C15.8287 26.6108 16.3992 26.4969 16.7786 26.1128L16.1169 26.7829C11.4256 26.5178 7.32695 23.4856 5.65206 19.0407C3.97718 14.5958 5.03884 9.56918 8.36341 6.2072ZM16.785 29.8958L18.6576 31.7907L31.7575 18.5234L33.6289 16.6297L31.7575 14.7341L16.785 29.8958ZM48.0088 53.3333L23.3831 30.7947L32.6467 21.4141L54.9022 46.3529C55.3746 46.8829 55.3546 47.6949 54.8557 48.1994L49.8272 53.2921C49.3277 53.792 48.5297 53.8103 48.0088 53.3333ZM53.2797 53.5921L54.2153 54.5396C54.7323 55.0631 55.5704 55.0631 56.0873 54.539C56.6036 54.0155 56.6036 53.1668 56.0867 52.6433L55.1523 51.6959L53.2797 53.5921Z" fill="#CAFD35"/>
<path id="Shape_2" fill-rule="evenodd" clip-rule="evenodd" d="M80.6915 5.24011C80.3422 4.98255 79.8926 4.91231 79.4837 5.05079L63.3785 10.5311C62.8299 10.7177 62.4603 11.2415 62.4603 11.8316V23.5534C61.6477 23.0604 60.7211 22.7975 59.7761 22.7921C56.8114 22.7921 54.4077 25.2453 54.4077 28.2724C54.4077 31.2988 56.8114 33.7527 59.7761 33.7527C62.7408 33.7527 65.1446 31.2988 65.1446 28.2724V12.819L78.5656 8.25118V18.0731C77.753 17.5801 76.8264 17.3172 75.8814 17.3118C72.9167 17.3118 70.513 19.765 70.513 22.7921C70.513 25.8186 72.9167 28.2724 75.8814 28.2724C78.8461 28.2724 81.2498 25.8186 81.2498 22.7921V6.35128C81.2498 5.91043 81.0414 5.497 80.6915 5.24011ZM59.7761 31.0112C58.2938 31.0112 57.0919 29.7843 57.0919 28.2711C57.0919 26.7572 58.2938 25.531 59.7761 25.531C61.2585 25.531 62.4603 26.7572 62.4603 28.2711C62.4603 29.7843 61.2585 31.0112 59.7761 31.0112ZM73.1972 22.794C73.1972 24.3072 74.3991 25.5341 75.8814 25.5341C77.3637 25.5341 78.5656 24.3072 78.5656 22.794C78.5656 21.2801 77.3637 20.0538 75.8814 20.0538C74.3991 20.0538 73.1972 21.2801 73.1972 22.794Z" fill="#CAFD35"/>
<path id="Shape_3" fill-rule="evenodd" clip-rule="evenodd" d="M10.1793 54.3024L28.7678 48.8816C29.1684 48.7651 29.5996 48.8465 29.9321 49.1026C30.2647 49.3587 30.4605 49.759 30.4605 50.1845V69.1572C30.4605 72.1509 28.0825 74.578 25.1495 74.578C22.2165 74.578 19.8385 72.1509 19.8385 69.1572C19.8385 66.163 22.2165 63.7365 25.1495 63.7365C26.0844 63.7418 27.0011 64.0018 27.805 64.4895V57.4343L11.872 62.0504V74.578C11.872 77.5716 9.49399 79.9988 6.56101 79.9988C3.62802 79.9988 1.25 77.5716 1.25 74.578C1.25 71.5838 3.62802 69.1572 6.56101 69.1572C7.49588 69.1625 8.4126 69.4226 9.21651 69.9103V55.6053C9.21651 55.0005 9.60939 54.4691 10.1793 54.3024ZM3.9055 74.5773C3.9055 76.0741 5.09451 77.2877 6.561 77.2877C8.0275 77.2877 9.21651 76.0741 9.21651 74.5773C9.21651 73.0799 8.0275 71.8669 6.561 71.8669C5.09451 71.8669 3.9055 73.0799 3.9055 74.5773ZM11.872 59.2345V56.6286L27.805 51.9827V54.6203L11.872 59.2345ZM22.494 69.1586C22.494 70.6554 23.683 71.869 25.1495 71.869C26.616 71.869 27.805 70.6554 27.805 69.1586C27.805 67.6611 26.616 66.4482 25.1495 66.4482C23.683 66.4482 22.494 67.6611 22.494 69.1586Z" fill="#CAFD35"/>
</g>
</g>
<defs>
<clipPath id="clip0_1403_25730">
<rect width="81" height="80" fill="white" transform="translate(0.5)"/>
</clipPath>
</defs>
</svg>
