<svg width="82" height="80" viewBox="0 0 82 80" fill="none" xmlns="http://www.w3.org/2000/svg">
<g id="about03" clip-path="url(#clip0_1403_25757)">
<g id="room-key">
<path id="Shape" fill-rule="evenodd" clip-rule="evenodd" d="M80.6373 30.3972L78.5989 28.359V11.9147C78.5989 5.34487 73.2541 0 66.6842 0C63.9811 0 61.4866 0.906199 59.4852 2.42885C50.6638 -1.90222 39.6818 -0.40499 32.355 6.92164C24.5086 14.7682 23.3492 26.8064 28.8734 35.8938L19.939 44.8282H16.1648C15.3036 44.8282 14.6053 45.5264 14.6053 46.3877V49.2487H11.7442C10.8831 49.2487 10.1847 49.9468 10.1847 50.8081V53.6691H7.32392C6.46279 53.6691 5.76446 54.3673 5.76446 55.2285V58.0895H2.90365C2.49008 58.0895 2.09351 58.2539 1.80096 58.5463L1.70676 58.6405C1.41437 58.9326 1.25 59.3293 1.25 59.7428V69.8615C1.25 70.7228 1.94832 71.421 2.80945 71.421H13.1167C13.5302 71.421 13.9268 71.2566 14.2194 70.9642L31.4215 53.762C32.0305 53.1531 32.0305 52.1656 31.4215 51.5565C30.8124 50.9475 29.8253 50.9475 29.216 51.5565L12.4706 68.3022H4.36891V61.208H7.32407C8.1852 61.208 8.88353 60.5098 8.88353 59.6485V56.7875H11.7445C12.6056 56.7875 13.304 56.0894 13.304 55.2281V52.3671H16.1651C17.0262 52.3671 17.7245 51.6689 17.7245 50.8076V47.9467H20.5855C20.9991 47.9467 21.3957 47.7823 21.6882 47.4899L30.6964 38.4819C31.2118 39.1178 31.7646 39.7333 32.356 40.3247C36.5752 44.5439 42.11 46.969 48.0352 47.2198V73.2919C48.0352 76.9032 50.9734 79.8414 54.5847 79.8414H74.5453C78.1567 79.8414 81.0948 76.9032 81.0948 73.2919V31.4997C81.0941 31.0863 80.9297 30.6897 80.6373 30.3972ZM66.6841 3.11719C71.5341 3.11719 75.48 7.06292 75.48 11.913V25.2384L72.6758 22.4341C72.6738 22.4321 72.6718 22.4302 72.6697 22.4283L72.6661 22.4249C72.6611 22.4203 72.656 22.4158 72.6508 22.4113L72.6402 22.402L72.6332 22.3956C72.343 16.7621 70.052 11.2133 65.7587 6.9196C64.7332 5.89426 63.6358 4.9837 62.4832 4.18666C63.7323 3.50518 65.1636 3.11719 66.6841 3.11719ZM57.888 12.9023V16.3448C57.888 17.206 57.1898 17.9044 56.3287 17.9044C55.4675 17.9044 54.7692 17.2063 54.7692 16.345V12.9094C54.3686 13.0915 53.992 13.3429 53.6629 13.6719C52.1889 15.1458 52.1889 17.5441 53.6629 19.0181C55.1369 20.4922 57.5352 20.4921 59.0089 19.0181C59.7231 18.304 60.1164 17.3546 60.1164 16.3448C60.1164 15.3351 59.723 14.3859 59.0089 13.6718C58.676 13.3387 58.2941 13.085 57.888 12.9023ZM49.0566 44.1134C43.8075 44.1129 38.5565 42.1145 34.5603 38.1184C26.5673 30.1252 26.5673 17.1191 34.5604 9.12577C38.4325 5.25365 43.5809 3.12109 49.0569 3.12109C51.8859 3.12109 54.6267 3.6917 57.15 4.77567C56.1024 6.17139 55.3546 7.80398 55.0006 9.57692C53.7015 9.83127 52.4619 10.4602 51.4576 11.4645C48.7677 14.1545 48.7677 18.5313 51.4576 21.2214C52.8027 22.5664 54.5691 23.2388 56.336 23.2388C58.1024 23.2388 59.8694 22.5662 61.2143 21.2214C62.5174 19.9183 63.2352 18.1856 63.2352 16.3429C63.2352 14.5001 62.5174 12.7676 61.2143 11.4645C60.3397 10.5899 59.2866 10.0017 58.1715 9.69591C58.5066 8.41029 59.1268 7.2393 59.9591 6.25232C61.2458 7.06339 62.4512 8.02402 63.553 9.12593C67.4251 12.9981 69.5577 18.1463 69.5577 23.6223C69.5577 29.0983 67.4251 34.2466 63.553 38.1187C59.556 42.1157 54.3072 44.1138 49.0566 44.1134ZM74.5445 76.7248C76.4361 76.7248 77.9751 75.1858 77.9751 73.294V32.1474L72.4721 26.6445C71.8321 31.6507 69.5954 36.49 65.7587 40.3267C61.7952 44.2901 56.6711 46.6698 51.1532 47.152V73.294C51.1532 75.1858 52.6922 76.7248 54.584 76.7248H74.5445Z" fill="#CAFD35"/>
<path id="Path" fill-rule="evenodd" clip-rule="evenodd" d="M40.6509 15.6621C41.2602 15.0531 41.2602 14.0657 40.6511 13.4567C40.042 12.8478 39.0548 12.8478 38.4456 13.4567C32.8515 19.051 32.8515 28.1533 38.4456 33.7474C38.7501 34.052 39.1492 34.2042 39.5482 34.2042C39.9473 34.2042 40.3464 34.0518 40.6509 33.7474C41.2599 33.1384 41.2599 32.151 40.6509 31.542C36.2729 27.1639 36.2729 20.0401 40.6509 15.6621Z" fill="#CAFD35"/>
<path id="Path_2" fill-rule="evenodd" clip-rule="evenodd" d="M46.2478 34.064C46.2433 34.0628 46.2255 34.0578 46.221 34.0566C45.3922 33.8275 44.5362 34.3151 44.3068 35.1446C44.0771 35.9734 44.5652 36.8327 45.3937 37.0638C45.5361 37.1042 45.6793 37.1234 45.8202 37.1234C46.4989 37.1234 47.1232 36.6769 47.3189 35.992C47.5556 35.1638 47.0761 34.3006 46.2478 34.064Z" fill="#CAFD35"/>
<path id="Path_3" fill-rule="evenodd" clip-rule="evenodd" d="M71.0645 68H57.8095C56.9483 68 56.25 68.6982 56.25 69.5595C56.25 70.4207 56.9483 71.1189 57.8095 71.1189H71.0645C71.9256 71.1189 72.624 70.4207 72.624 69.5595C72.624 68.6982 71.9256 68 71.0645 68Z" fill="#CAFD35"/>
<path id="Path_4" fill-rule="evenodd" clip-rule="evenodd" d="M34.9118 47.4569C34.6219 47.1669 34.2196 47 33.8095 47C33.3993 47 32.997 47.1669 32.7069 47.4569C32.4169 47.747 32.25 48.1493 32.25 48.5595C32.25 48.9696 32.4167 49.3719 32.7069 49.662C32.9971 49.952 33.3993 50.1189 33.8095 50.1189C34.2212 50.1189 34.6219 49.952 34.9118 49.662C35.2035 49.3719 35.3689 48.9696 35.3689 48.5595C35.3689 48.1493 35.2035 47.747 34.9118 47.4569Z" fill="#CAFD35"/>
</g>
</g>
<defs>
<clipPath id="clip0_1403_25757">
<rect width="81" height="80" fill="white" transform="translate(0.5)"/>
</clipPath>
</defs>
</svg>
