<svg width="20" height="20" viewBox="0 0 20 20" fill="none" xmlns="http://www.w3.org/2000/svg">
<path d="M19 10.0109C19 14.9814 14.9706 18.5109 10 18.5109C5.51347 18.247 3.01576 19.2616 2 18.0109C1.09134 16.892 1.97217 14.2604 1.5 10.0109C1.5 5.0403 5.02944 1.01086 10 1.01086C14.9706 1.01086 19 5.0403 19 10.0109Z" fill="#40C351"/>
<path d="M0 20L1.40069 15.0306C0.499964 13.5021 0.0257258 11.7629 0.0257258 9.97634C0.0257258 4.47537 4.50595 0 10.0129 0C15.5198 0 20 4.47537 20 9.97634C20 15.4773 15.5198 19.9527 10.0129 19.9527C8.29697 19.9527 6.61674 19.5139 5.13034 18.6808L0 20ZM5.39262 16.8658L5.69832 17.0523C6.99429 17.8426 8.48627 18.2604 10.0129 18.2604C14.5857 18.2604 18.3058 14.5442 18.3058 9.97634C18.3058 5.40852 14.5857 1.69232 10.0129 1.69232C5.44012 1.69232 1.71988 5.40852 1.71988 9.97634C1.71988 11.5679 2.17272 13.1135 3.02934 14.446L3.23521 14.7662L2.4286 17.628L5.39262 16.8658Z" fill="white"/>
<path d="M7.20738 5.33303L6.55933 5.29774C6.35578 5.28665 6.15612 5.35459 6.00227 5.4881C5.6881 5.76062 5.18575 6.2875 5.03146 6.97408C4.80137 7.9978 5.15695 9.25137 6.07725 10.5049C6.99756 11.7585 8.7126 13.7642 11.7453 14.6208C12.7226 14.8969 13.4914 14.7108 14.0845 14.3318C14.5543 14.0316 14.8781 13.5498 14.9948 13.0051L15.0983 12.5224C15.1312 12.3689 15.0532 12.2132 14.9105 12.1476L12.7203 11.1391C12.5782 11.0737 12.4096 11.1151 12.3139 11.2388L11.4541 12.3523C11.3892 12.4364 11.278 12.4697 11.1776 12.4345C10.5888 12.2278 8.61641 11.4026 7.53416 9.32019C7.48723 9.22987 7.4989 9.12025 7.56547 9.04322L8.3872 8.09364C8.47116 7.99668 8.49236 7.86035 8.44192 7.74252L7.49783 5.53617C7.44757 5.41871 7.33494 5.33999 7.20738 5.33303Z" fill="white"/>
</svg>
