<svg width="61" height="47" viewBox="0 0 61 47" fill="none" xmlns="http://www.w3.org/2000/svg">
<g id="Frame 1823">
<path id="Arrow 5" d="M33.5001 4C33.5001 2.34315 32.157 1 30.5001 1C28.8433 1 27.5001 2.34315 27.5001 4L33.5001 4ZM28.3788 46.1213C29.5504 47.2929 31.4499 47.2929 32.6214 46.1213L51.7133 27.0294C52.8849 25.8579 52.8849 23.9584 51.7133 22.7868C50.5418 21.6152 48.6423 21.6152 47.4707 22.7868L30.5001 39.7574L13.5296 22.7868C12.358 21.6152 10.4585 21.6152 9.28692 22.7868C8.11534 23.9584 8.11534 25.8579 9.28692 27.0294L28.3788 46.1213ZM27.5001 4L27.5001 44L33.5001 44L33.5001 4L27.5001 4Z" fill="#CAFD35"/>
</g>
</svg>
