<svg width="66" height="67" viewBox="0 0 66 67" fill="none" xmlns="http://www.w3.org/2000/svg">
<g id="Frame 1823">
<path id="Arrow 5" d="M3 31C1.34315 31 0 32.3431 0 34C0 35.6569 1.34315 37 3 37V31ZM65.1213 36.1213C66.2929 34.9497 66.2929 33.0503 65.1213 31.8787L46.0294 12.7868C44.8579 11.6152 42.9584 11.6152 41.7868 12.7868C40.6152 13.9584 40.6152 15.8579 41.7868 17.0294L58.7574 34L41.7868 50.9706C40.6152 52.1421 40.6152 54.0416 41.7868 55.2132C42.9584 56.3848 44.8579 56.3848 46.0294 55.2132L65.1213 36.1213ZM3 37H63V31H3V37Z" fill="#CAFD35"/>
</g>
</svg>
