<svg width="21" height="20" viewBox="0 0 21 20" fill="none" xmlns="http://www.w3.org/2000/svg">
<path d="M10.4875 0C4.96941 0 0.5 4.15515 0.5 9.28652C0.5 12.2151 1.94819 14.8184 4.22035 16.5205L4.27029 19.7745C4.27029 19.9497 4.47004 20.0499 4.61985 19.9748L7.74095 18.2226C8.61486 18.4479 9.5387 18.573 10.5125 18.573C16.0306 18.573 20.5 14.4179 20.5 9.28652C20.5 4.15515 15.9806 0 10.4875 0ZM11.2116 12.3153L9.08926 10.0875C8.96442 9.96236 8.76467 9.93732 8.61486 10.0124L4.86954 12.0399C4.71973 12.115 4.59488 11.9398 4.69476 11.8147L9.11423 7.10882C9.23908 6.98366 9.4638 6.98366 9.58864 7.10882L11.711 9.38664C11.8358 9.5118 12.0356 9.56186 12.1854 9.46173L15.8558 7.45925C16.0056 7.38416 16.1305 7.55938 16.0306 7.68453L11.686 12.3153C11.5612 12.4404 11.3365 12.4404 11.2116 12.3153Z" fill="#2196F3"/>
</svg>
