<svg width="23" height="24" viewBox="0 0 23 24" fill="none" xmlns="http://www.w3.org/2000/svg">
<path d="M17.6857 14.6047L17.6841 14.6038C16.6184 13.9811 15.4756 14.3448 14.9658 15.0346L14.2228 16.0052C14.2228 16.0052 14.2228 16.0052 14.2228 16.0052C14.1347 16.1203 13.9952 16.1868 13.835 16.2193C13.7583 16.2348 13.6885 16.2399 13.6385 16.241C13.6277 16.2412 13.6181 16.2413 13.6098 16.2412C11.2138 15.5849 9.68236 13.9921 8.74003 12.5314C8.26594 11.7965 7.94584 11.1019 7.74471 10.5919C7.6443 10.3373 7.57399 10.1299 7.52925 9.9879C7.50689 9.91695 7.49095 9.86246 7.48086 9.82672C7.48061 9.82584 7.48036 9.82497 7.48012 9.82411C7.48001 9.81408 7.48003 9.80226 7.48028 9.7889C7.48134 9.73386 7.48642 9.65715 7.502 9.57282C7.53508 9.39383 7.60344 9.24147 7.71359 9.14916C7.71363 9.14913 7.71367 9.1491 7.7137 9.14907L8.64241 8.37371C9.303 7.84042 9.63455 6.67657 9.05227 5.59243L9.05229 5.59242L9.05019 5.58859C8.06679 3.79533 7.3004 2.85634 6.82185 2.27003C6.67521 2.09036 6.5556 1.94381 6.46505 1.81594L6.45734 1.80505L6.44906 1.79459C6.15421 1.42204 5.76466 1.17144 5.31236 1.09197C4.90356 1.02014 4.48252 1.09475 4.08117 1.2882H4.04975L3.93214 1.35764C3.14977 1.81955 2.31384 2.49097 1.73608 3.29229C1.15806 4.09397 0.798265 5.08858 1.12111 6.13709L1.13317 6.17626L1.15145 6.21294C1.29359 6.49819 1.46018 6.90208 1.66452 7.39749C2.66858 9.83173 4.58398 14.4755 8.98721 18.1098C10.2374 19.148 11.8396 20.1901 13.331 21.0316C14.7153 21.8127 16.0403 22.4415 16.9233 22.7303L16.9352 22.749L17.1026 22.8053C18.1346 23.1525 19.1071 22.7599 19.8747 22.1556C20.6436 21.5504 21.2854 20.6783 21.7256 19.8689L21.7863 19.7572V19.7299C21.9713 19.3153 22.0416 18.8871 21.9759 18.4757C21.9047 18.0297 21.6787 17.6375 21.3298 17.3355C20.3295 16.3543 18.8474 15.2895 17.6857 14.6047ZM13.5749 16.2401C13.5744 16.2401 13.5744 16.2401 13.5751 16.2401L13.5749 16.2401Z" stroke="white"/>
</svg>
